<?xml version="1.0" standalone="no"?>
<!DOCTYPE svg PUBLIC "-//W3C//DTD SVG 20010904//EN"
 "http://www.w3.org/TR/2001/REC-SVG-20010904/DTD/svg10.dtd">
<svg version="1.0" xmlns="http://www.w3.org/2000/svg"
 width="774.000000pt" height="292.000000pt" viewBox="0 0 774.000000 292.000000"
 preserveAspectRatio="xMidYMid meet">
<metadata>
Created by potrace 1.16, written by Peter Selinger 2001-2019
</metadata>
<g transform="translate(0.000000,292.000000) scale(0.100000,-0.100000)"
fill="#000000" stroke="none">
<path d="M3624 2829 c-18 -20 -19 -43 -22 -349 l-3 -328 27 -31 26 -31 333 0
334 0 28 24 28 24 3 320 c2 266 0 327 -12 356 l-15 36 -354 0 c-347 0 -354 0
-373 -21z m454 -201 l3 -68 64 0 65 0 0 -85 0 -85 -65 0 -64 0 -3 -67 -3 -68
-85 0 -85 0 -3 68 -3 67 -64 0 -65 0 0 85 0 85 65 0 65 0 0 63 c0 35 3 67 7
71 4 4 43 5 88 4 l80 -3 3 -67z"/>
<path d="M4535 2076 c-41 -19 -236 -136 -255 -153 -3 -3 9 -17 27 -31 37 -33
53 -61 53 -99 0 -104 -157 -173 -396 -173 -34 0 -96 -7 -139 -16 -78 -16 -104
-12 -72 10 26 20 115 33 280 44 132 9 154 13 205 38 72 37 97 70 88 118 -13
70 -56 80 -233 55 -124 -17 -199 -3 -318 58 -182 94 -203 103 -273 115 -86 14
-176 3 -249 -33 -27 -13 -91 -65 -145 -118 l-98 -94 0 -78 c0 -90 37 -358 52
-376 15 -19 65 -16 80 5 18 25 97 86 135 106 55 27 108 20 238 -35 198 -83
283 -109 370 -115 194 -14 403 82 587 268 192 195 294 429 222 509 -24 27 -96
25 -159 -5z"/>
<path d="M4960 1310 l0 -80 1135 0 1135 0 0 80 0 80 -1135 0 -1135 0 0 -80z"/>
<path d="M500 1300 l0 -80 1130 0 1130 0 0 80 0 80 -1130 0 -1130 0 0 -80z"/>
<path d="M160 731 l-75 -6 -3 -297 -2 -298 65 0 c44 0 66 4 67 13 1 6 2 35 2
62 1 28 3 76 4 108 l2 57 78 0 c71 0 83 3 118 29 62 44 77 75 78 156 1 83 -24
134 -77 158 -39 18 -154 26 -257 18z m167 -129 c22 -14 33 -60 21 -87 -10 -23
-17 -25 -70 -25 l-58 0 0 60 0 60 48 0 c26 0 52 -4 59 -8z"/>
<path d="M1708 733 c-54 -3 -70 -8 -78 -23 -6 -11 -9 -125 -7 -297 l2 -278 67
-3 67 -3 3 98 3 98 68 -98 68 -97 79 0 c70 0 80 2 80 18 0 10 -13 32 -30 50
-16 18 -30 37 -30 42 0 4 -3 10 -8 12 -4 2 -24 27 -45 56 -36 51 -37 55 -20
68 10 7 21 14 25 14 3 0 20 12 37 26 72 60 75 207 5 275 -27 27 -43 32 -106
40 -40 4 -82 7 -93 7 -11 -1 -50 -3 -87 -5z m174 -140 c25 -30 29 -54 13 -79
-13 -21 -23 -24 -75 -24 l-60 0 0 60 0 60 53 0 c39 0 58 -5 69 -17z"/>
<path d="M3630 727 c-38 -18 -64 -47 -86 -97 -16 -38 -19 -67 -19 -205 0 -150
2 -163 25 -209 38 -76 65 -90 171 -94 75 -3 95 -1 133 18 58 28 87 76 89 149
l2 56 -44 3 c-68 5 -88 -3 -95 -39 -9 -48 -24 -59 -73 -59 -41 0 -45 3 -59 35
-9 23 -14 71 -14 145 0 74 5 122 14 145 14 32 18 35 59 35 48 0 59 -8 74 -55
9 -29 11 -30 74 -30 l64 0 -1 48 c0 58 -42 123 -94 149 -41 20 -180 23 -220 5z"/>
<path d="M4140 727 c-48 -22 -67 -42 -90 -92 -21 -45 -23 -64 -23 -206 1 -138
3 -161 23 -207 36 -83 64 -97 190 -97 96 0 108 2 138 25 68 50 77 83 77 280 0
148 -3 180 -18 207 -23 42 -54 71 -96 89 -40 17 -165 17 -201 1z m142 -129
c26 -22 38 -77 37 -177 -1 -120 -15 -164 -55 -171 -86 -16 -99 7 -99 175 0
154 12 185 68 185 18 0 40 -6 49 -12z"/>
<path d="M6358 727 c-82 -37 -108 -108 -108 -296 0 -244 45 -311 207 -311 92
0 130 13 169 56 40 46 54 98 54 202 l0 80 -97 4 c-127 5 -135 1 -131 -65 l3
-52 43 -3 c49 -4 55 -23 21 -66 -26 -33 -77 -36 -105 -5 -17 19 -19 38 -19
164 0 165 4 175 72 175 43 0 45 -1 64 -45 l20 -45 52 0 c29 0 58 5 65 12 41
41 -29 170 -107 196 -43 15 -168 14 -203 -1z"/>
<path d="M7068 730 c-16 -10 -18 -32 -18 -221 0 -246 -4 -259 -75 -259 -73 0
-74 5 -79 256 -2 120 -4 220 -5 222 -1 2 -31 2 -68 0 l-68 -3 1 -210 c1 -334
34 -395 211 -395 87 0 133 13 166 47 54 57 59 87 58 327 -1 121 -5 224 -10
229 -14 14 -94 19 -113 7z"/>
<path d="M587 724 c-4 -4 -7 -139 -7 -299 l0 -292 57 -6 c32 -3 61 -3 66 2 4
4 10 60 14 124 l6 117 69 0 68 0 0 -119 0 -118 57 -6 c32 -3 61 -3 65 1 3 4 8
140 10 302 l3 295 -44 3 c-91 7 -91 7 -91 -123 l0 -115 -70 0 -69 0 -3 118 -3
117 -60 3 c-34 2 -64 0 -68 -4z"/>
<path d="M1243 723 c-7 -2 -13 -11 -13 -19 0 -8 -25 -89 -56 -181 -69 -205
-114 -353 -114 -375 0 -21 47 -32 98 -23 35 6 38 9 56 66 l20 60 79 -3 80 -3
18 -55 c10 -30 19 -56 19 -57 0 -2 29 -3 65 -3 61 0 65 1 65 23 0 13 -13 64
-30 115 -16 51 -30 98 -30 103 0 6 -6 25 -14 42 -8 18 -16 41 -19 52 -9 32
-64 187 -81 228 -16 37 -17 37 -74 36 -31 0 -63 -3 -69 -6z"/>
<path d="M2117 549 c-4 -100 -7 -235 -7 -301 l0 -118 65 0 c55 0 65 3 66 18 1
9 4 78 8 152 l6 135 22 -42 c38 -72 73 -124 89 -130 24 -9 60 22 89 79 55 106
54 107 57 -58 l3 -149 68 -3 67 -3 -2 298 -3 298 -55 3 c-30 1 -60 -1 -65 -5
-9 -7 -50 -74 -143 -233 -7 -11 -20 8 -51 70 -23 47 -54 103 -70 125 -25 38
-30 40 -82 43 l-56 3 -6 -182z"/>
<path d="M2879 688 c-34 -92 -41 -114 -48 -148 -4 -19 -12 -44 -18 -55 -6 -11
-25 -67 -43 -125 -18 -58 -39 -122 -46 -143 -24 -63 -19 -85 19 -92 18 -4 49
-3 68 2 30 8 36 15 52 66 l18 57 80 0 c43 0 79 -1 79 -2 0 -2 9 -28 19 -58
l18 -55 66 -3 c66 -3 67 -2 67 22 0 14 -6 43 -13 63 -8 21 -20 54 -26 73 -7
19 -17 51 -21 70 -8 33 -24 79 -98 285 l-29 80 -64 3 -64 3 -16 -43z"/>
<path d="M4547 724 c-4 -4 -7 -139 -7 -301 l0 -293 145 0 144 0 5 33 c3 17 4
43 3 57 -2 24 -5 25 -79 28 l-78 3 -2 237 -3 237 -60 3 c-34 2 -64 0 -68 -4z"/>
<path d="M4907 724 c-4 -4 -7 -139 -7 -301 l0 -294 148 3 147 3 3 57 3 58 -80
0 -81 0 -2 238 -3 237 -60 3 c-34 2 -64 0 -68 -4z"/>
<path d="M5268 723 c-2 -5 -5 -139 -7 -300 l-3 -291 184 -4 c116 -2 186 0 190
7 4 5 8 34 8 63 l0 52 -120 0 -120 0 0 65 0 65 115 0 115 0 0 65 0 65 -115 0
-115 0 0 45 0 45 115 0 114 0 6 33 c4 19 5 47 3 63 l-3 29 -182 3 c-100 1
-183 -1 -185 -5z"/>
<path d="M5860 684 c-11 -25 -20 -52 -20 -60 0 -9 -5 -25 -12 -37 -6 -12 -15
-35 -19 -52 -7 -28 -14 -50 -44 -135 -7 -19 -21 -62 -30 -95 -10 -33 -24 -77
-31 -98 -21 -58 -18 -74 16 -82 17 -4 48 -4 70 0 38 6 40 9 56 66 l17 60 80
-3 80 -3 18 -55 c10 -30 19 -56 19 -57 0 -2 29 -3 65 -3 63 0 65 1 65 26 0 24
-14 74 -45 164 -7 19 -29 85 -48 145 -33 100 -55 160 -86 238 -10 25 -14 27
-71 27 l-61 0 -19 -46z"/>
<path d="M7280 728 c-1 -2 -3 -136 -7 -300 l-6 -296 184 -4 c117 -2 187 0 191
7 4 5 8 34 8 63 l0 52 -120 0 -120 0 0 65 0 65 115 0 115 0 0 65 0 65 -115 0
-115 0 0 45 0 45 115 0 c129 0 130 1 123 86 l-3 39 -182 3 c-101 1 -183 1
-183 0z"/>
</g>
</svg>
