<?xml version="1.0" standalone="no"?>
<!DOCTYPE svg PUBLIC "-//W3C//DTD SVG 20010904//EN"
 "http://www.w3.org/TR/2001/REC-SVG-20010904/DTD/svg10.dtd">
<svg version="1.0" xmlns="http://www.w3.org/2000/svg"
 width="90.000000pt" height="73.000000pt" viewBox="0 0 90.000000 73.000000"
 preserveAspectRatio="xMidYMid meet">
<metadata>
Created by potrace 1.16, written by Peter Selinger 2001-2019
</metadata>
<g transform="translate(0.000000,73.000000) scale(0.027439,-0.025436)"
fill="#000000" stroke="none">
<path d="M1221 2761 c-13 -3 -33 -19 -44 -33 -19 -25 -21 -49 -28 -260 -4
-128 -8 -374 -8 -547 l-1 -313 41 -49 41 -49 561 0 562 0 44 38 45 39 0 534
c1 497 0 538 -18 592 l-19 57 -576 -1 c-317 -1 -587 -4 -600 -8z m713 -287 c3
-26 6 -78 6 -115 l0 -69 110 0 110 0 0 -145 0 -145 -110 0 -110 0 0 -64 c0
-35 -3 -84 -6 -110 l-7 -46 -137 0 -137 0 -7 38 c-3 20 -6 70 -6 110 l0 72
-110 0 -110 0 0 145 0 145 110 0 110 0 0 96 c0 139 -6 134 154 134 l133 0 7
-46z"/>
<path d="M2750 1501 c-30 -10 -98 -43 -150 -73 -100 -58 -264 -157 -305 -184
l-25 -16 59 -64 c102 -111 104 -196 7 -290 -88 -85 -232 -128 -485 -145 -91
-5 -228 -19 -303 -30 -75 -11 -147 -19 -160 -17 l-23 3 23 21 c33 31 147 51
414 74 131 11 261 25 290 31 77 16 156 58 210 110 45 42 48 49 48 96 0 75 -30
114 -100 132 -48 12 -76 11 -210 -3 -323 -34 -376 -24 -700 134 -124 60 -247
117 -275 126 -64 22 -271 31 -346 15 -145 -30 -233 -87 -425 -274 l-134 -130
0 -106 c0 -211 58 -619 92 -653 10 -10 32 -18 53 -18 28 0 47 11 102 61 82 73
191 147 235 160 86 24 132 13 448 -111 356 -140 371 -144 585 -144 176 -1 182
0 280 31 250 80 435 201 655 429 180 187 303 374 360 552 48 147 36 253 -31
287 -38 20 -122 18 -189 -4z"/>
</g>
</svg>
